<?xml version="1.0" encoding="UTF-8" standalone="no"?>
<!DOCTYPE svg PUBLIC "-//W3C//DTD SVG 1.1//EN"
 "http://www.w3.org/Graphics/SVG/1.1/DTD/svg11.dtd">
<!-- Generated by graphviz version 2.38.0 (20140413.2041)
 -->
<!-- Title: controllers_diagram Pages: 1 -->
<svg width="707pt" height="597pt"
 viewBox="0.00 0.00 707.00 596.50" xmlns="http://www.w3.org/2000/svg" xmlns:xlink="http://www.w3.org/1999/xlink">
<g id="graph0" class="graph" transform="scale(1 1) rotate(0) translate(258.5 354.5)">
<title>controllers_diagram</title>
<polygon fill="none" stroke="none" points="-258.5,242 -258.5,-354.5 448.5,-354.5 448.5,242 -258.5,242"/>
<!-- _diagram_info -->
<g id="node1" class="node"><title>_diagram_info</title>
<text text-anchor="start" x="110" y="157.4" font-family="Times,serif" font-size="13.00">Controllers diagram</text>
<text text-anchor="start" x="110" y="171.4" font-family="Times,serif" font-size="13.00">Date: Oct 27 2017 &#45; 17:21</text>
<text text-anchor="start" x="110" y="185.4" font-family="Times,serif" font-size="13.00">Migration version: 20171027201528</text>
<text text-anchor="start" x="110" y="199.4" font-family="Times,serif" font-size="13.00">Generated by RailRoady 1.5.3</text>
<text text-anchor="start" x="110" y="213.4" font-family="Times,serif" font-size="13.00">http://railroady.prestonlee.com</text>
</g>
<!-- CatchedController -->
<g id="node2" class="node"><title>CatchedController</title>
<path fill="none" stroke="black" d="M114,101.5C114,101.5 206,101.5 206,101.5 212,101.5 218,95.5 218,89.5 218,89.5 218,-99.5 218,-99.5 218,-105.5 212,-111.5 206,-111.5 206,-111.5 114,-111.5 114,-111.5 108,-111.5 102,-105.5 102,-99.5 102,-99.5 102,89.5 102,89.5 102,95.5 108,101.5 114,101.5"/>
<text text-anchor="middle" x="160" y="-96.3" font-family="Times,serif" font-size="14.00">CatchedController</text>
<polyline fill="none" stroke="black" points="102,-88.5 218,-88.5 "/>
<text text-anchor="start" x="110" y="-73.3" font-family="Times,serif" font-size="14.00">create</text>
<text text-anchor="start" x="110" y="-58.3" font-family="Times,serif" font-size="14.00">destroy</text>
<text text-anchor="start" x="110" y="-43.3" font-family="Times,serif" font-size="14.00">edit</text>
<text text-anchor="start" x="110" y="-28.3" font-family="Times,serif" font-size="14.00">index</text>
<text text-anchor="start" x="110" y="-13.3" font-family="Times,serif" font-size="14.00">new</text>
<text text-anchor="start" x="110" y="1.7" font-family="Times,serif" font-size="14.00">show</text>
<text text-anchor="start" x="110" y="16.7" font-family="Times,serif" font-size="14.00">update</text>
<polyline fill="none" stroke="black" points="102,24.5 218,24.5 "/>
<polyline fill="none" stroke="black" points="102,48.5 218,48.5 "/>
<text text-anchor="start" x="110" y="63.7" font-family="Times,serif" font-size="14.00">_layout</text>
<text text-anchor="start" x="110" y="78.7" font-family="Times,serif" font-size="14.00">catched_params</text>
<text text-anchor="start" x="110" y="93.7" font-family="Times,serif" font-size="14.00">set_catched</text>
</g>
<!-- ApplicationController -->
<g id="node3" class="node"><title>ApplicationController</title>
<path fill="none" stroke="black" d="M-226,237.5C-226,237.5 -80,237.5 -80,237.5 -74,237.5 -68,231.5 -68,225.5 -68,225.5 -68,156.5 -68,156.5 -68,150.5 -74,144.5 -80,144.5 -80,144.5 -226,144.5 -226,144.5 -232,144.5 -238,150.5 -238,156.5 -238,156.5 -238,225.5 -238,225.5 -238,231.5 -232,237.5 -226,237.5"/>
<text text-anchor="middle" x="-153" y="159.7" font-family="Times,serif" font-size="14.00">ApplicationController</text>
<polyline fill="none" stroke="black" points="-238,167.5 -68,167.5 "/>
<text text-anchor="start" x="-230" y="182.7" font-family="Times,serif" font-size="14.00">configure_sanitized_params</text>
<polyline fill="none" stroke="black" points="-238,190.5 -68,190.5 "/>
<polyline fill="none" stroke="black" points="-238,214.5 -68,214.5 "/>
<text text-anchor="start" x="-230" y="229.7" font-family="Times,serif" font-size="14.00">_layout</text>
</g>
<!-- PokemonsController -->
<g id="node4" class="node"><title>PokemonsController</title>
<path fill="none" stroke="black" d="M-55.5,118.5C-55.5,118.5 49.5,118.5 49.5,118.5 55.5,118.5 61.5,112.5 61.5,106.5 61.5,106.5 61.5,-82.5 61.5,-82.5 61.5,-88.5 55.5,-94.5 49.5,-94.5 49.5,-94.5 -55.5,-94.5 -55.5,-94.5 -61.5,-94.5 -67.5,-88.5 -67.5,-82.5 -67.5,-82.5 -67.5,106.5 -67.5,106.5 -67.5,112.5 -61.5,118.5 -55.5,118.5"/>
<text text-anchor="middle" x="-3" y="-79.3" font-family="Times,serif" font-size="14.00">PokemonsController</text>
<polyline fill="none" stroke="black" points="-67.5,-71.5 61.5,-71.5 "/>
<text text-anchor="start" x="-59.5" y="-56.3" font-family="Times,serif" font-size="14.00">create</text>
<text text-anchor="start" x="-59.5" y="-41.3" font-family="Times,serif" font-size="14.00">destroy</text>
<text text-anchor="start" x="-59.5" y="-26.3" font-family="Times,serif" font-size="14.00">edit</text>
<text text-anchor="start" x="-59.5" y="-11.3" font-family="Times,serif" font-size="14.00">index</text>
<text text-anchor="start" x="-59.5" y="3.7" font-family="Times,serif" font-size="14.00">new</text>
<text text-anchor="start" x="-59.5" y="18.7" font-family="Times,serif" font-size="14.00">show</text>
<text text-anchor="start" x="-59.5" y="33.7" font-family="Times,serif" font-size="14.00">update</text>
<polyline fill="none" stroke="black" points="-67.5,41.5 61.5,41.5 "/>
<polyline fill="none" stroke="black" points="-67.5,65.5 61.5,65.5 "/>
<text text-anchor="start" x="-59.5" y="80.7" font-family="Times,serif" font-size="14.00">_layout</text>
<text text-anchor="start" x="-59.5" y="95.7" font-family="Times,serif" font-size="14.00">pokemon_params</text>
<text text-anchor="start" x="-59.5" y="110.7" font-family="Times,serif" font-size="14.00">set_pokemon</text>
</g>
<!-- Users::OmniauthCallbacksController -->
<g id="node5" class="node"><title>Users::OmniauthCallbacksController</title>
<path fill="none" stroke="black" d="M165,-154C165,-154 359,-154 359,-154 365,-154 371,-160 371,-166 371,-166 371,-236 371,-236 371,-242 365,-248 359,-248 359,-248 165,-248 165,-248 159,-248 153,-242 153,-236 153,-236 153,-166 153,-166 153,-160 159,-154 165,-154"/>
<text text-anchor="middle" x="262" y="-232.8" font-family="Times,serif" font-size="14.00">Users::OmniauthCallbacksController</text>
<polyline fill="none" stroke="black" points="153,-225 371,-225 "/>
<polyline fill="none" stroke="black" points="153,-201 371,-201 "/>
<polyline fill="none" stroke="black" points="153,-177 371,-177 "/>
<text text-anchor="start" x="161" y="-161.8" font-family="Times,serif" font-size="14.00">_layout</text>
</g>
<!-- Users::SessionsController -->
<g id="node6" class="node"><title>Users::SessionsController</title>
<path fill="none" stroke="black" d="M-21.5,-256C-21.5,-256 111.5,-256 111.5,-256 117.5,-256 123.5,-262 123.5,-268 123.5,-268 123.5,-338 123.5,-338 123.5,-344 117.5,-350 111.5,-350 111.5,-350 -21.5,-350 -21.5,-350 -27.5,-350 -33.5,-344 -33.5,-338 -33.5,-338 -33.5,-268 -33.5,-268 -33.5,-262 -27.5,-256 -21.5,-256"/>
<text text-anchor="middle" x="45" y="-334.8" font-family="Times,serif" font-size="14.00">Users::SessionsController</text>
<polyline fill="none" stroke="black" points="-33.5,-327 123.5,-327 "/>
<polyline fill="none" stroke="black" points="-33.5,-303 123.5,-303 "/>
<polyline fill="none" stroke="black" points="-33.5,-279 123.5,-279 "/>
<text text-anchor="start" x="-25.5" y="-263.8" font-family="Times,serif" font-size="14.00">_layout</text>
</g>
<!-- Users::RegistrationsController -->
<g id="node7" class="node"><title>Users::RegistrationsController</title>
<path fill="none" stroke="black" d="M-124,-136.5C-124,-136.5 58,-136.5 58,-136.5 64,-136.5 70,-142.5 70,-148.5 70,-148.5 70,-217.5 70,-217.5 70,-223.5 64,-229.5 58,-229.5 58,-229.5 -124,-229.5 -124,-229.5 -130,-229.5 -136,-223.5 -136,-217.5 -136,-217.5 -136,-148.5 -136,-148.5 -136,-142.5 -130,-136.5 -124,-136.5"/>
<text text-anchor="middle" x="-33" y="-214.3" font-family="Times,serif" font-size="14.00">Users::RegistrationsController</text>
<polyline fill="none" stroke="black" points="-136,-206.5 70,-206.5 "/>
<text text-anchor="start" x="-128" y="-191.3" font-family="Times,serif" font-size="14.00">configure_account_update_params</text>
<polyline fill="none" stroke="black" points="-136,-183.5 70,-183.5 "/>
<polyline fill="none" stroke="black" points="-136,-159.5 70,-159.5 "/>
<text text-anchor="start" x="-128" y="-144.3" font-family="Times,serif" font-size="14.00">_layout</text>
</g>
<!-- Users::PasswordsController -->
<g id="node8" class="node"><title>Users::PasswordsController</title>
<path fill="none" stroke="black" d="M-226.5,-256C-226.5,-256 -83.5,-256 -83.5,-256 -77.5,-256 -71.5,-262 -71.5,-268 -71.5,-268 -71.5,-338 -71.5,-338 -71.5,-344 -77.5,-350 -83.5,-350 -83.5,-350 -226.5,-350 -226.5,-350 -232.5,-350 -238.5,-344 -238.5,-338 -238.5,-338 -238.5,-268 -238.5,-268 -238.5,-262 -232.5,-256 -226.5,-256"/>
<text text-anchor="middle" x="-155" y="-334.8" font-family="Times,serif" font-size="14.00">Users::PasswordsController</text>
<polyline fill="none" stroke="black" points="-238.5,-327 -71.5,-327 "/>
<polyline fill="none" stroke="black" points="-238.5,-303 -71.5,-303 "/>
<polyline fill="none" stroke="black" points="-238.5,-279 -71.5,-279 "/>
<text text-anchor="start" x="-230.5" y="-263.8" font-family="Times,serif" font-size="14.00">_layout</text>
</g>
<!-- Users::ConfirmationsController -->
<g id="node9" class="node"><title>Users::ConfirmationsController</title>
<path fill="none" stroke="black" d="M267.5,101C267.5,101 432.5,101 432.5,101 438.5,101 444.5,95 444.5,89 444.5,89 444.5,19 444.5,19 444.5,13 438.5,7 432.5,7 432.5,7 267.5,7 267.5,7 261.5,7 255.5,13 255.5,19 255.5,19 255.5,89 255.5,89 255.5,95 261.5,101 267.5,101"/>
<text text-anchor="middle" x="350" y="22.2" font-family="Times,serif" font-size="14.00">Users::ConfirmationsController</text>
<polyline fill="none" stroke="black" points="255.5,30 444.5,30 "/>
<polyline fill="none" stroke="black" points="255.5,54 444.5,54 "/>
<polyline fill="none" stroke="black" points="255.5,78 444.5,78 "/>
<text text-anchor="start" x="263.5" y="93.2" font-family="Times,serif" font-size="14.00">_layout</text>
</g>
<!-- Users::UnlocksController -->
<g id="node10" class="node"><title>Users::UnlocksController</title>
<path fill="none" stroke="black" d="M-242.5,-1C-242.5,-1 -111.5,-1 -111.5,-1 -105.5,-1 -99.5,-7 -99.5,-13 -99.5,-13 -99.5,-83 -99.5,-83 -99.5,-89 -105.5,-95 -111.5,-95 -111.5,-95 -242.5,-95 -242.5,-95 -248.5,-95 -254.5,-89 -254.5,-83 -254.5,-83 -254.5,-13 -254.5,-13 -254.5,-7 -248.5,-1 -242.5,-1"/>
<text text-anchor="middle" x="-177" y="-79.8" font-family="Times,serif" font-size="14.00">Users::UnlocksController</text>
<polyline fill="none" stroke="black" points="-254.5,-72 -99.5,-72 "/>
<polyline fill="none" stroke="black" points="-254.5,-48 -99.5,-48 "/>
<polyline fill="none" stroke="black" points="-254.5,-24 -99.5,-24 "/>
<text text-anchor="start" x="-246.5" y="-8.8" font-family="Times,serif" font-size="14.00">_layout</text>
</g>
</g>
</svg>
