<?xml version="1.0" encoding="UTF-8" standalone="no"?>
<!DOCTYPE svg PUBLIC "-//W3C//DTD SVG 1.1//EN"
 "http://www.w3.org/Graphics/SVG/1.1/DTD/svg11.dtd">
<!-- Generated by graphviz version 2.38.0 (20140413.2041)
 -->
<!-- Title: controllers_diagram Pages: 1 -->
<svg width="443pt" height="359pt"
 viewBox="0.00 0.00 443.00 358.50" xmlns="http://www.w3.org/2000/svg" xmlns:xlink="http://www.w3.org/1999/xlink">
<g id="graph0" class="graph" transform="scale(1 1) rotate(0) translate(72 235.5)">
<title>controllers_diagram</title>
<polygon fill="none" stroke="none" points="-72,123 -72,-235.5 371,-235.5 371,123 -72,123"/>
<!-- _diagram_info -->
<g id="node1" class="node"><title>_diagram_info</title>
<text text-anchor="start" x="161" y="-216.6" font-family="Times,serif" font-size="13.00">Controllers diagram</text>
<text text-anchor="start" x="161" y="-202.6" font-family="Times,serif" font-size="13.00">Date: Oct 26 2017 &#45; 22:23</text>
<text text-anchor="start" x="161" y="-188.6" font-family="Times,serif" font-size="13.00">Migration version: 20171026203548</text>
<text text-anchor="start" x="161" y="-174.6" font-family="Times,serif" font-size="13.00">Generated by RailRoady 1.5.3</text>
<text text-anchor="start" x="161" y="-160.6" font-family="Times,serif" font-size="13.00">http://railroady.prestonlee.com</text>
</g>
<!-- AtrapadosController -->
<g id="node2" class="node"><title>AtrapadosController</title>
<path fill="none" stroke="black" d="M-56,118.5C-56,118.5 48,118.5 48,118.5 54,118.5 60,112.5 60,106.5 60,106.5 60,-82.5 60,-82.5 60,-88.5 54,-94.5 48,-94.5 48,-94.5 -56,-94.5 -56,-94.5 -62,-94.5 -68,-88.5 -68,-82.5 -68,-82.5 -68,106.5 -68,106.5 -68,112.5 -62,118.5 -56,118.5"/>
<text text-anchor="middle" x="-4" y="-79.3" font-family="Times,serif" font-size="14.00">AtrapadosController</text>
<polyline fill="none" stroke="black" points="-68,-71.5 60,-71.5 "/>
<text text-anchor="start" x="-60" y="-56.3" font-family="Times,serif" font-size="14.00">create</text>
<text text-anchor="start" x="-60" y="-41.3" font-family="Times,serif" font-size="14.00">destroy</text>
<text text-anchor="start" x="-60" y="-26.3" font-family="Times,serif" font-size="14.00">edit</text>
<text text-anchor="start" x="-60" y="-11.3" font-family="Times,serif" font-size="14.00">index</text>
<text text-anchor="start" x="-60" y="3.7" font-family="Times,serif" font-size="14.00">new</text>
<text text-anchor="start" x="-60" y="18.7" font-family="Times,serif" font-size="14.00">show</text>
<text text-anchor="start" x="-60" y="33.7" font-family="Times,serif" font-size="14.00">update</text>
<polyline fill="none" stroke="black" points="-68,41.5 60,41.5 "/>
<polyline fill="none" stroke="black" points="-68,65.5 60,65.5 "/>
<text text-anchor="start" x="-60" y="80.7" font-family="Times,serif" font-size="14.00">_layout</text>
<text text-anchor="start" x="-60" y="95.7" font-family="Times,serif" font-size="14.00">atrapado_params</text>
<text text-anchor="start" x="-60" y="110.7" font-family="Times,serif" font-size="14.00">set_atrapado</text>
</g>
<!-- ApplicationController -->
<g id="node3" class="node"><title>ApplicationController</title>
<path fill="none" stroke="black" d="M-56,-137C-56,-137 56,-137 56,-137 62,-137 68,-143 68,-149 68,-149 68,-219 68,-219 68,-225 62,-231 56,-231 56,-231 -56,-231 -56,-231 -62,-231 -68,-225 -68,-219 -68,-219 -68,-149 -68,-149 -68,-143 -62,-137 -56,-137"/>
<text text-anchor="middle" x="0" y="-215.8" font-family="Times,serif" font-size="14.00">ApplicationController</text>
<polyline fill="none" stroke="black" points="-68,-208 68,-208 "/>
<polyline fill="none" stroke="black" points="-68,-184 68,-184 "/>
<polyline fill="none" stroke="black" points="-68,-160 68,-160 "/>
<text text-anchor="start" x="-60" y="-144.8" font-family="Times,serif" font-size="14.00">_layout</text>
</g>
<!-- PokemonsController -->
<g id="node4" class="node"><title>PokemonsController</title>
<path fill="none" stroke="black" d="M114.5,101.5C114.5,101.5 219.5,101.5 219.5,101.5 225.5,101.5 231.5,95.5 231.5,89.5 231.5,89.5 231.5,-99.5 231.5,-99.5 231.5,-105.5 225.5,-111.5 219.5,-111.5 219.5,-111.5 114.5,-111.5 114.5,-111.5 108.5,-111.5 102.5,-105.5 102.5,-99.5 102.5,-99.5 102.5,89.5 102.5,89.5 102.5,95.5 108.5,101.5 114.5,101.5"/>
<text text-anchor="middle" x="167" y="-96.3" font-family="Times,serif" font-size="14.00">PokemonsController</text>
<polyline fill="none" stroke="black" points="102.5,-88.5 231.5,-88.5 "/>
<text text-anchor="start" x="110.5" y="-73.3" font-family="Times,serif" font-size="14.00">create</text>
<text text-anchor="start" x="110.5" y="-58.3" font-family="Times,serif" font-size="14.00">destroy</text>
<text text-anchor="start" x="110.5" y="-43.3" font-family="Times,serif" font-size="14.00">edit</text>
<text text-anchor="start" x="110.5" y="-28.3" font-family="Times,serif" font-size="14.00">index</text>
<text text-anchor="start" x="110.5" y="-13.3" font-family="Times,serif" font-size="14.00">new</text>
<text text-anchor="start" x="110.5" y="1.7" font-family="Times,serif" font-size="14.00">show</text>
<text text-anchor="start" x="110.5" y="16.7" font-family="Times,serif" font-size="14.00">update</text>
<polyline fill="none" stroke="black" points="102.5,24.5 231.5,24.5 "/>
<polyline fill="none" stroke="black" points="102.5,48.5 231.5,48.5 "/>
<text text-anchor="start" x="110.5" y="63.7" font-family="Times,serif" font-size="14.00">_layout</text>
<text text-anchor="start" x="110.5" y="78.7" font-family="Times,serif" font-size="14.00">pokemon_params</text>
<text text-anchor="start" x="110.5" y="93.7" font-family="Times,serif" font-size="14.00">set_pokemon</text>
</g>
</g>
</svg>
