<?xml version="1.0" encoding="UTF-8" standalone="no"?>
<!DOCTYPE svg PUBLIC "-//W3C//DTD SVG 1.1//EN"
 "http://www.w3.org/Graphics/SVG/1.1/DTD/svg11.dtd">
<!-- Generated by graphviz version 2.38.0 (20140413.2041)
 -->
<!-- Title: models_diagram Pages: 1 -->
<svg width="501pt" height="246pt"
 viewBox="0.00 0.00 501.34 246.00" xmlns="http://www.w3.org/2000/svg" xmlns:xlink="http://www.w3.org/1999/xlink">
<g id="graph0" class="graph" transform="scale(1 1) rotate(0) translate(4 242)">
<title>models_diagram</title>
<polygon fill="none" stroke="none" points="-4,4 -4,-242 497.343,-242 497.343,4 -4,4"/>
<!-- _diagram_info -->
<g id="node1" class="node"><title>_diagram_info</title>
<text text-anchor="start" x="8" y="-223.6" font-family="Times,serif" font-size="13.00">Models diagram</text>
<text text-anchor="start" x="8" y="-209.6" font-family="Times,serif" font-size="13.00">Date: Oct 26 2017 &#45; 22:23</text>
<text text-anchor="start" x="8" y="-195.6" font-family="Times,serif" font-size="13.00">Migration version: 20171026203548</text>
<text text-anchor="start" x="8" y="-181.6" font-family="Times,serif" font-size="13.00">Generated by RailRoady 1.5.3</text>
<text text-anchor="start" x="8" y="-167.6" font-family="Times,serif" font-size="13.00">http://railroady.prestonlee.com</text>
</g>
<!-- User -->
<g id="node2" class="node"><title>User</title>
<ellipse fill="none" stroke="black" cx="241" cy="-105" rx="27.0966" ry="18"/>
<text text-anchor="middle" x="241" y="-101.3" font-family="Times,serif" font-size="14.00">User</text>
</g>
<!-- Atrapado -->
<g id="node4" class="node"><title>Atrapado</title>
<ellipse fill="none" stroke="black" cx="296" cy="-18" rx="43.5923" ry="18"/>
<text text-anchor="middle" x="296" y="-14.3" font-family="Times,serif" font-size="14.00">Atrapado</text>
</g>
<!-- User&#45;&gt;Atrapado -->
<g id="edge1" class="edge"><title>User&#45;&gt;Atrapado</title>
<path fill="none" stroke="#9fbe77" d="M255.697,-81.2871C263.133,-69.7948 272.177,-55.8175 279.812,-44.0177"/>
<ellipse fill="none" stroke="#9fbe77" cx="253.518" cy="-84.6539" rx="4.00002" ry="4.00002"/>
<polygon fill="#9fbe77" stroke="#9fbe77" points="279.894,-43.8917 289.104,-37.9406 282.61,-39.6938 285.326,-35.4959 285.326,-35.4959 285.326,-35.4959 282.61,-39.6938 281.548,-33.0513 279.894,-43.8917 279.894,-43.8917"/>
</g>
<!-- Pokemons -->
<g id="node6" class="node"><title>Pokemons</title>
<ellipse fill="none" stroke="black" cx="186" cy="-18" rx="48.1917" ry="18"/>
<text text-anchor="middle" x="186" y="-14.3" font-family="Times,serif" font-size="14.00">Pokemons</text>
</g>
<!-- User&#45;&gt;Pokemons -->
<g id="edge2" class="edge"><title>User&#45;&gt;Pokemons</title>
<path fill="none" stroke="#9f44c3" d="M216.243,-83.7121C211.748,-79.2098 207.411,-74.2142 204,-69 199.383,-61.9431 195.768,-53.5512 193.029,-45.6773"/>
<polygon fill="#9f44c3" stroke="#9f44c3" points="216.505,-83.9563 220.751,-94.0666 220.162,-87.3656 223.819,-90.7749 223.819,-90.7749 223.819,-90.7749 220.162,-87.3656 226.888,-87.4832 216.505,-83.9563 216.505,-83.9563"/>
<polygon fill="#9f44c3" stroke="#9f44c3" points="193.023,-45.6578 194.309,-34.7676 191.52,-40.889 190.017,-36.1201 190.017,-36.1201 190.017,-36.1201 191.52,-40.889 185.725,-37.4727 193.023,-45.6578 193.023,-45.6578"/>
<text text-anchor="middle" x="232.5" y="-57.8" font-family="Times,serif" font-size="14.00">pokemons</text>
</g>
<!-- Pokemon -->
<g id="node3" class="node"><title>Pokemon</title>
<ellipse fill="none" stroke="black" cx="276" cy="-199" rx="44.393" ry="18"/>
<text text-anchor="middle" x="276" y="-195.3" font-family="Times,serif" font-size="14.00">Pokemon</text>
</g>
<!-- Pokemon&#45;&gt;User -->
<g id="edge4" class="edge"><title>Pokemon&#45;&gt;User</title>
<path fill="none" stroke="#b7d0ea" d="M265.897,-171.445C261.233,-159.183 255.709,-144.663 251.05,-132.418"/>
<polygon fill="#b7d0ea" stroke="#b7d0ea" points="266.025,-171.779 265.375,-182.726 267.803,-176.453 269.58,-181.126 269.58,-181.126 269.58,-181.126 267.803,-176.453 273.786,-179.526 266.025,-171.779 266.025,-171.779"/>
<polygon fill="#b7d0ea" stroke="#b7d0ea" points="250.935,-132.114 251.585,-121.167 249.157,-127.44 247.379,-122.767 247.379,-122.767 247.379,-122.767 249.157,-127.44 243.173,-124.367 250.935,-132.114 250.935,-132.114"/>
</g>
<!-- Pokemon&#45;&gt;Atrapado -->
<g id="edge3" class="edge"><title>Pokemon&#45;&gt;Atrapado</title>
<path fill="none" stroke="#5ee99d" d="M278.843,-172.557C282.577,-139.14 289.107,-80.6911 292.944,-46.3512"/>
<ellipse fill="none" stroke="#5ee99d" cx="278.362" cy="-176.861" rx="4.00001" ry="4.00001"/>
<polygon fill="#5ee99d" stroke="#5ee99d" points="292.978,-46.0495 298.56,-36.611 293.533,-41.0804 294.088,-36.1113 294.088,-36.1113 294.088,-36.1113 293.533,-41.0804 289.616,-35.6116 292.978,-46.0495 292.978,-46.0495"/>
</g>
<!-- ApplicationRecord -->
<g id="node5" class="node"><title>ApplicationRecord</title>
<ellipse fill="none" stroke="black" cx="416" cy="-199" rx="77.1866" ry="18"/>
<text text-anchor="middle" x="416" y="-195.3" font-family="Times,serif" font-size="14.00">ApplicationRecord</text>
</g>
</g>
</svg>
