<?xml version="1.0" encoding="UTF-8" standalone="no"?>
<!DOCTYPE svg PUBLIC "-//W3C//DTD SVG 1.1//EN"
 "http://www.w3.org/Graphics/SVG/1.1/DTD/svg11.dtd">
<!-- Generated by graphviz version 2.38.0 (20140413.2041)
 -->
<!-- Title: models_diagram Pages: 1 -->
<svg width="726pt" height="581pt"
 viewBox="0.00 0.00 726.34 581.00" xmlns="http://www.w3.org/2000/svg" xmlns:xlink="http://www.w3.org/1999/xlink">
<g id="graph0" class="graph" transform="scale(1 1) rotate(0) translate(4 577)">
<title>models_diagram</title>
<polygon fill="none" stroke="none" points="-4,4 -4,-577 722.343,-577 722.343,4 -4,4"/>
<!-- _diagram_info -->
<g id="node1" class="node"><title>_diagram_info</title>
<text text-anchor="start" x="8" y="-476.6" font-family="Times,serif" font-size="13.00">Models diagram</text>
<text text-anchor="start" x="8" y="-462.6" font-family="Times,serif" font-size="13.00">Date: Oct 27 2017 &#45; 17:21</text>
<text text-anchor="start" x="8" y="-448.6" font-family="Times,serif" font-size="13.00">Migration version: 20171027201528</text>
<text text-anchor="start" x="8" y="-434.6" font-family="Times,serif" font-size="13.00">Generated by RailRoady 1.5.3</text>
<text text-anchor="start" x="8" y="-420.6" font-family="Times,serif" font-size="13.00">http://railroady.prestonlee.com</text>
</g>
<!-- User -->
<g id="node2" class="node"><title>User</title>
<path fill="none" stroke="black" d="M244.5,-331.5C244.5,-331.5 533.5,-331.5 533.5,-331.5 539.5,-331.5 545.5,-337.5 545.5,-343.5 545.5,-343.5 545.5,-560.5 545.5,-560.5 545.5,-566.5 539.5,-572.5 533.5,-572.5 533.5,-572.5 244.5,-572.5 244.5,-572.5 238.5,-572.5 232.5,-566.5 232.5,-560.5 232.5,-560.5 232.5,-343.5 232.5,-343.5 232.5,-337.5 238.5,-331.5 244.5,-331.5"/>
<text text-anchor="middle" x="389" y="-557.3" font-family="Times,serif" font-size="14.00">User</text>
<polyline fill="none" stroke="black" points="232.5,-549.5 545.5,-549.5 "/>
<text text-anchor="start" x="240.5" y="-534.3" font-family="Times,serif" font-size="14.00">id :bigint</text>
<text text-anchor="start" x="240.5" y="-519.3" font-family="Times,serif" font-size="14.00">email :character varying</text>
<text text-anchor="start" x="240.5" y="-504.3" font-family="Times,serif" font-size="14.00">encrypted_password :character varying</text>
<text text-anchor="start" x="240.5" y="-489.3" font-family="Times,serif" font-size="14.00">reset_password_token :character varying</text>
<text text-anchor="start" x="240.5" y="-474.3" font-family="Times,serif" font-size="14.00">reset_password_sent_at :timestamp without time zone</text>
<text text-anchor="start" x="240.5" y="-459.3" font-family="Times,serif" font-size="14.00">remember_created_at :timestamp without time zone</text>
<text text-anchor="start" x="240.5" y="-444.3" font-family="Times,serif" font-size="14.00">sign_in_count :integer</text>
<text text-anchor="start" x="240.5" y="-429.3" font-family="Times,serif" font-size="14.00">current_sign_in_at :timestamp without time zone</text>
<text text-anchor="start" x="240.5" y="-414.3" font-family="Times,serif" font-size="14.00">last_sign_in_at :timestamp without time zone</text>
<text text-anchor="start" x="240.5" y="-399.3" font-family="Times,serif" font-size="14.00">current_sign_in_ip :inet</text>
<text text-anchor="start" x="240.5" y="-384.3" font-family="Times,serif" font-size="14.00">last_sign_in_ip :inet</text>
<text text-anchor="start" x="240.5" y="-369.3" font-family="Times,serif" font-size="14.00">created_at :timestamp without time zone</text>
<text text-anchor="start" x="240.5" y="-354.3" font-family="Times,serif" font-size="14.00">updated_at :timestamp without time zone</text>
<text text-anchor="start" x="240.5" y="-339.3" font-family="Times,serif" font-size="14.00">name :character varying</text>
</g>
<!-- Pokemon -->
<g id="node3" class="node"><title>Pokemon</title>
<path fill="none" stroke="black" d="M204,-158.5C204,-158.5 424,-158.5 424,-158.5 430,-158.5 436,-164.5 436,-170.5 436,-170.5 436,-282.5 436,-282.5 436,-288.5 430,-294.5 424,-294.5 424,-294.5 204,-294.5 204,-294.5 198,-294.5 192,-288.5 192,-282.5 192,-282.5 192,-170.5 192,-170.5 192,-164.5 198,-158.5 204,-158.5"/>
<text text-anchor="middle" x="314" y="-279.3" font-family="Times,serif" font-size="14.00">Pokemon</text>
<polyline fill="none" stroke="black" points="192,-271.5 436,-271.5 "/>
<text text-anchor="start" x="200" y="-256.3" font-family="Times,serif" font-size="14.00">id :bigint</text>
<text text-anchor="start" x="200" y="-241.3" font-family="Times,serif" font-size="14.00">nombre :character varying</text>
<text text-anchor="start" x="200" y="-226.3" font-family="Times,serif" font-size="14.00">descripcion :text</text>
<text text-anchor="start" x="200" y="-211.3" font-family="Times,serif" font-size="14.00">imagen :character varying</text>
<text text-anchor="start" x="200" y="-196.3" font-family="Times,serif" font-size="14.00">carta :character varying</text>
<text text-anchor="start" x="200" y="-181.3" font-family="Times,serif" font-size="14.00">created_at :timestamp without time zone</text>
<text text-anchor="start" x="200" y="-166.3" font-family="Times,serif" font-size="14.00">updated_at :timestamp without time zone</text>
</g>
<!-- User&#45;&gt;Pokemon -->
<g id="edge2" class="edge"><title>User&#45;&gt;Pokemon</title>
<path fill="none" stroke="#5cc18e" d="M345.618,-321.723C343.681,-315.949 341.765,-310.239 339.892,-304.657"/>
<polygon fill="#5cc18e" stroke="#5cc18e" points="345.684,-321.918 344.599,-332.83 347.274,-326.658 348.865,-331.398 348.865,-331.398 348.865,-331.398 347.274,-326.658 353.131,-329.967 345.684,-321.918 345.684,-321.918"/>
<polygon fill="#5cc18e" stroke="#5cc18e" points="339.752,-304.241 340.837,-293.329 338.162,-299.501 336.571,-294.761 336.571,-294.761 336.571,-294.761 338.162,-299.501 332.305,-296.193 339.752,-304.241 339.752,-304.241"/>
</g>
<!-- Catched -->
<g id="node4" class="node"><title>Catched</title>
<path fill="none" stroke="black" d="M279,-0.5C279,-0.5 499,-0.5 499,-0.5 505,-0.5 511,-6.5 511,-12.5 511,-12.5 511,-109.5 511,-109.5 511,-115.5 505,-121.5 499,-121.5 499,-121.5 279,-121.5 279,-121.5 273,-121.5 267,-115.5 267,-109.5 267,-109.5 267,-12.5 267,-12.5 267,-6.5 273,-0.5 279,-0.5"/>
<text text-anchor="middle" x="389" y="-106.3" font-family="Times,serif" font-size="14.00">Catched</text>
<polyline fill="none" stroke="black" points="267,-98.5 511,-98.5 "/>
<text text-anchor="start" x="275" y="-83.3" font-family="Times,serif" font-size="14.00">id :bigint</text>
<text text-anchor="start" x="275" y="-68.3" font-family="Times,serif" font-size="14.00">pokemon_id :bigint</text>
<text text-anchor="start" x="275" y="-53.3" font-family="Times,serif" font-size="14.00">user_id :bigint</text>
<text text-anchor="start" x="275" y="-38.3" font-family="Times,serif" font-size="14.00">poke_level :integer</text>
<text text-anchor="start" x="275" y="-23.3" font-family="Times,serif" font-size="14.00">created_at :timestamp without time zone</text>
<text text-anchor="start" x="275" y="-8.3" font-family="Times,serif" font-size="14.00">updated_at :timestamp without time zone</text>
</g>
<!-- User&#45;&gt;Catched -->
<g id="edge1" class="edge"><title>User&#45;&gt;Catched</title>
<path fill="none" stroke="#872ddc" d="M438.433,-323.49C452.018,-271.731 459.495,-211.616 445,-158 442.515,-148.807 438.906,-139.59 434.7,-130.701"/>
<ellipse fill="none" stroke="#872ddc" cx="437.34" cy="-327.531" rx="4.00001" ry="4.00001"/>
<polygon fill="#872ddc" stroke="#872ddc" points="434.604,-130.51 434.145,-119.553 432.363,-126.04 430.122,-121.57 430.122,-121.57 430.122,-121.57 432.363,-126.04 426.099,-123.587 434.604,-130.51 434.604,-130.51"/>
</g>
<!-- Pokemon&#45;&gt;Catched -->
<g id="edge3" class="edge"><title>Pokemon&#45;&gt;Catched</title>
<path fill="none" stroke="#8a722f" d="M348.327,-150.667C351.319,-144.146 354.337,-137.565 357.306,-131.093"/>
<ellipse fill="none" stroke="#8a722f" cx="346.606" cy="-154.419" rx="4.00002" ry="4.00002"/>
<polygon fill="#8a722f" stroke="#8a722f" points="357.441,-130.798 365.701,-123.585 359.526,-126.253 361.611,-121.709 361.611,-121.709 361.611,-121.709 359.526,-126.253 357.521,-119.832 357.441,-130.798 357.441,-130.798"/>
</g>
<!-- ApplicationRecord -->
<g id="node5" class="node"><title>ApplicationRecord</title>
<ellipse fill="none" stroke="black" cx="641" cy="-452" rx="77.1866" ry="18"/>
<text text-anchor="middle" x="641" y="-448.3" font-family="Times,serif" font-size="14.00">ApplicationRecord</text>
</g>
</g>
</svg>
