<?xml version="1.0" encoding="UTF-8" standalone="no"?>
<!DOCTYPE svg PUBLIC "-//W3C//DTD SVG 1.1//EN"
 "http://www.w3.org/Graphics/SVG/1.1/DTD/svg11.dtd">
<!-- Generated by graphviz version 2.38.0 (20140413.2041)
 -->
<!-- Title: models_diagram Pages: 1 -->
<svg width="467pt" height="230pt"
 viewBox="0.00 0.00 467.34 230.00" xmlns="http://www.w3.org/2000/svg" xmlns:xlink="http://www.w3.org/1999/xlink">
<g id="graph0" class="graph" transform="scale(1 1) rotate(0) translate(4 226)">
<title>models_diagram</title>
<polygon fill="none" stroke="none" points="-4,4 -4,-226 463.343,-226 463.343,4 -4,4"/>
<!-- _diagram_info -->
<g id="node1" class="node"><title>_diagram_info</title>
<text text-anchor="start" x="8" y="-207.6" font-family="Times,serif" font-size="13.00">Models diagram</text>
<text text-anchor="start" x="8" y="-193.6" font-family="Times,serif" font-size="13.00">Date: Oct 27 2017 &#45; 17:21</text>
<text text-anchor="start" x="8" y="-179.6" font-family="Times,serif" font-size="13.00">Migration version: 20171027201528</text>
<text text-anchor="start" x="8" y="-165.6" font-family="Times,serif" font-size="13.00">Generated by RailRoady 1.5.3</text>
<text text-anchor="start" x="8" y="-151.6" font-family="Times,serif" font-size="13.00">http://railroady.prestonlee.com</text>
</g>
<!-- User -->
<g id="node2" class="node"><title>User</title>
<ellipse fill="none" stroke="black" cx="259" cy="-183" rx="27.0966" ry="18"/>
<text text-anchor="middle" x="259" y="-179.3" font-family="Times,serif" font-size="14.00">User</text>
</g>
<!-- Pokemon -->
<g id="node3" class="node"><title>Pokemon</title>
<ellipse fill="none" stroke="black" cx="223" cy="-90" rx="44.393" ry="18"/>
<text text-anchor="middle" x="223" y="-86.3" font-family="Times,serif" font-size="14.00">Pokemon</text>
</g>
<!-- User&#45;&gt;Pokemon -->
<g id="edge2" class="edge"><title>User&#45;&gt;Pokemon</title>
<path fill="none" stroke="#f89ee4" d="M248.634,-155.797C243.869,-143.752 238.228,-129.493 233.453,-117.422"/>
<polygon fill="#f89ee4" stroke="#f89ee4" points="248.718,-156.01 248.213,-166.965 250.558,-160.66 252.397,-165.309 252.397,-165.309 252.397,-165.309 250.558,-160.66 256.582,-163.654 248.718,-156.01 248.718,-156.01"/>
<polygon fill="#f89ee4" stroke="#f89ee4" points="233.362,-117.192 233.867,-106.238 231.522,-112.543 229.683,-107.893 229.683,-107.893 229.683,-107.893 231.522,-112.543 225.499,-109.549 233.362,-117.192 233.362,-117.192"/>
</g>
<!-- Catched -->
<g id="node4" class="node"><title>Catched</title>
<ellipse fill="none" stroke="black" cx="259" cy="-18" rx="39.7935" ry="18"/>
<text text-anchor="middle" x="259" y="-14.3" font-family="Times,serif" font-size="14.00">Catched</text>
</g>
<!-- User&#45;&gt;Catched -->
<g id="edge1" class="edge"><title>User&#45;&gt;Catched</title>
<path fill="none" stroke="#0ee334" d="M267.211,-157.27C273.568,-134.973 280.582,-101.287 276,-72 274.62,-63.1765 272.02,-53.8161 269.262,-45.4564"/>
<ellipse fill="none" stroke="#0ee334" cx="265.978" cy="-161.392" rx="4.00001" ry="4.00001"/>
<polygon fill="#0ee334" stroke="#0ee334" points="269.205,-45.2938 270.135,-34.3675 267.547,-40.5765 265.89,-35.8592 265.89,-35.8592 265.89,-35.8592 267.547,-40.5765 261.644,-37.351 269.205,-45.2938 269.205,-45.2938"/>
</g>
<!-- Pokemon&#45;&gt;Catched -->
<g id="edge3" class="edge"><title>Pokemon&#45;&gt;Catched</title>
<path fill="none" stroke="#f2c69e" d="M235.49,-64.7144C238.788,-58.3016 242.359,-51.3577 245.698,-44.8648"/>
<ellipse fill="none" stroke="#f2c69e" cx="233.544" cy="-68.4978" rx="4.00002" ry="4.00002"/>
<polygon fill="#f2c69e" stroke="#f2c69e" points="245.792,-44.6819 254.367,-37.8471 248.079,-40.2354 250.366,-35.789 250.366,-35.789 250.366,-35.789 248.079,-40.2354 246.364,-33.7309 245.792,-44.6819 245.792,-44.6819"/>
</g>
<!-- ApplicationRecord -->
<g id="node5" class="node"><title>ApplicationRecord</title>
<ellipse fill="none" stroke="black" cx="382" cy="-183" rx="77.1866" ry="18"/>
<text text-anchor="middle" x="382" y="-179.3" font-family="Times,serif" font-size="14.00">ApplicationRecord</text>
</g>
</g>
</svg>
