<?xml version="1.0" encoding="UTF-8" standalone="no"?>
<!DOCTYPE svg PUBLIC "-//W3C//DTD SVG 1.1//EN"
 "http://www.w3.org/Graphics/SVG/1.1/DTD/svg11.dtd">
<!-- Generated by graphviz version 2.38.0 (20140413.2041)
 -->
<!-- Title: models_diagram Pages: 1 -->
<svg width="656pt" height="582pt"
 viewBox="0.00 0.00 656.34 582.00" xmlns="http://www.w3.org/2000/svg" xmlns:xlink="http://www.w3.org/1999/xlink">
<g id="graph0" class="graph" transform="scale(1 1) rotate(0) translate(4 578)">
<title>models_diagram</title>
<polygon fill="none" stroke="none" points="-4,4 -4,-578 652.343,-578 652.343,4 -4,4"/>
<!-- _diagram_info -->
<g id="node1" class="node"><title>_diagram_info</title>
<text text-anchor="start" x="8" y="-530.1" font-family="Times,serif" font-size="13.00">Models diagram</text>
<text text-anchor="start" x="8" y="-516.1" font-family="Times,serif" font-size="13.00">Date: Oct 26 2017 &#45; 22:22</text>
<text text-anchor="start" x="8" y="-502.1" font-family="Times,serif" font-size="13.00">Migration version: 20171026203548</text>
<text text-anchor="start" x="8" y="-488.1" font-family="Times,serif" font-size="13.00">Generated by RailRoady 1.5.3</text>
<text text-anchor="start" x="8" y="-474.1" font-family="Times,serif" font-size="13.00">http://railroady.prestonlee.com</text>
</g>
<!-- User -->
<g id="node2" class="node"><title>User</title>
<path fill="none" stroke="black" d="M76.5,-173.5C76.5,-173.5 365.5,-173.5 365.5,-173.5 371.5,-173.5 377.5,-179.5 377.5,-185.5 377.5,-185.5 377.5,-387.5 377.5,-387.5 377.5,-393.5 371.5,-399.5 365.5,-399.5 365.5,-399.5 76.5,-399.5 76.5,-399.5 70.5,-399.5 64.5,-393.5 64.5,-387.5 64.5,-387.5 64.5,-185.5 64.5,-185.5 64.5,-179.5 70.5,-173.5 76.5,-173.5"/>
<text text-anchor="middle" x="221" y="-384.3" font-family="Times,serif" font-size="14.00">User</text>
<polyline fill="none" stroke="black" points="64.5,-376.5 377.5,-376.5 "/>
<text text-anchor="start" x="72.5" y="-361.3" font-family="Times,serif" font-size="14.00">id :bigint</text>
<text text-anchor="start" x="72.5" y="-346.3" font-family="Times,serif" font-size="14.00">email :character varying</text>
<text text-anchor="start" x="72.5" y="-331.3" font-family="Times,serif" font-size="14.00">encrypted_password :character varying</text>
<text text-anchor="start" x="72.5" y="-316.3" font-family="Times,serif" font-size="14.00">reset_password_token :character varying</text>
<text text-anchor="start" x="72.5" y="-301.3" font-family="Times,serif" font-size="14.00">reset_password_sent_at :timestamp without time zone</text>
<text text-anchor="start" x="72.5" y="-286.3" font-family="Times,serif" font-size="14.00">remember_created_at :timestamp without time zone</text>
<text text-anchor="start" x="72.5" y="-271.3" font-family="Times,serif" font-size="14.00">sign_in_count :integer</text>
<text text-anchor="start" x="72.5" y="-256.3" font-family="Times,serif" font-size="14.00">current_sign_in_at :timestamp without time zone</text>
<text text-anchor="start" x="72.5" y="-241.3" font-family="Times,serif" font-size="14.00">last_sign_in_at :timestamp without time zone</text>
<text text-anchor="start" x="72.5" y="-226.3" font-family="Times,serif" font-size="14.00">current_sign_in_ip :inet</text>
<text text-anchor="start" x="72.5" y="-211.3" font-family="Times,serif" font-size="14.00">last_sign_in_ip :inet</text>
<text text-anchor="start" x="72.5" y="-196.3" font-family="Times,serif" font-size="14.00">created_at :timestamp without time zone</text>
<text text-anchor="start" x="72.5" y="-181.3" font-family="Times,serif" font-size="14.00">updated_at :timestamp without time zone</text>
</g>
<!-- Atrapado -->
<g id="node4" class="node"><title>Atrapado</title>
<path fill="none" stroke="black" d="M296,-0.5C296,-0.5 516,-0.5 516,-0.5 522,-0.5 528,-6.5 528,-12.5 528,-12.5 528,-109.5 528,-109.5 528,-115.5 522,-121.5 516,-121.5 516,-121.5 296,-121.5 296,-121.5 290,-121.5 284,-115.5 284,-109.5 284,-109.5 284,-12.5 284,-12.5 284,-6.5 290,-0.5 296,-0.5"/>
<text text-anchor="middle" x="406" y="-106.3" font-family="Times,serif" font-size="14.00">Atrapado</text>
<polyline fill="none" stroke="black" points="284,-98.5 528,-98.5 "/>
<text text-anchor="start" x="292" y="-83.3" font-family="Times,serif" font-size="14.00">id :bigint</text>
<text text-anchor="start" x="292" y="-68.3" font-family="Times,serif" font-size="14.00">pokemons_id :bigint</text>
<text text-anchor="start" x="292" y="-53.3" font-family="Times,serif" font-size="14.00">users_id :bigint</text>
<text text-anchor="start" x="292" y="-38.3" font-family="Times,serif" font-size="14.00">poke_level :integer</text>
<text text-anchor="start" x="292" y="-23.3" font-family="Times,serif" font-size="14.00">created_at :timestamp without time zone</text>
<text text-anchor="start" x="292" y="-8.3" font-family="Times,serif" font-size="14.00">updated_at :timestamp without time zone</text>
</g>
<!-- User&#45;&gt;Atrapado -->
<g id="edge1" class="edge"><title>User&#45;&gt;Atrapado</title>
<path fill="none" stroke="#a51a16" d="M318.966,-167.146C329.657,-154.231 340.25,-141.433 350.171,-129.447"/>
<ellipse fill="none" stroke="#a51a16" cx="316.322" cy="-170.341" rx="4.00002" ry="4.00002"/>
<polygon fill="#a51a16" stroke="#a51a16" points="350.212,-129.398 360.055,-124.564 353.4,-125.546 356.589,-121.694 356.589,-121.694 356.589,-121.694 353.4,-125.546 353.122,-118.825 350.212,-129.398 350.212,-129.398"/>
</g>
<!-- Pokemons -->
<g id="node6" class="node"><title>Pokemons</title>
<ellipse fill="none" stroke="black" cx="218" cy="-61" rx="48.1917" ry="18"/>
<text text-anchor="middle" x="218" y="-57.3" font-family="Times,serif" font-size="14.00">Pokemons</text>
</g>
<!-- User&#45;&gt;Pokemons -->
<g id="edge2" class="edge"><title>User&#45;&gt;Pokemons</title>
<path fill="none" stroke="#6d36db" d="M219.357,-163.083C218.984,-135.307 218.623,-108.418 218.367,-89.3644"/>
<polygon fill="#6d36db" stroke="#6d36db" points="219.361,-163.424 214.996,-173.483 219.428,-168.423 219.496,-173.423 219.496,-173.423 219.496,-173.423 219.428,-168.423 223.995,-173.362 219.361,-163.424 219.361,-163.424"/>
<polygon fill="#6d36db" stroke="#6d36db" points="218.364,-89.1029 222.729,-79.0434 218.297,-84.1034 218.23,-79.1038 218.23,-79.1038 218.23,-79.1038 218.297,-84.1034 213.73,-79.1643 218.364,-89.1029 218.364,-89.1029"/>
<text text-anchor="middle" x="247.5" y="-143.8" font-family="Times,serif" font-size="14.00">pokemons</text>
</g>
<!-- Pokemon -->
<g id="node3" class="node"><title>Pokemon</title>
<path fill="none" stroke="black" d="M244,-437.5C244,-437.5 464,-437.5 464,-437.5 470,-437.5 476,-443.5 476,-449.5 476,-449.5 476,-561.5 476,-561.5 476,-567.5 470,-573.5 464,-573.5 464,-573.5 244,-573.5 244,-573.5 238,-573.5 232,-567.5 232,-561.5 232,-561.5 232,-449.5 232,-449.5 232,-443.5 238,-437.5 244,-437.5"/>
<text text-anchor="middle" x="354" y="-558.3" font-family="Times,serif" font-size="14.00">Pokemon</text>
<polyline fill="none" stroke="black" points="232,-550.5 476,-550.5 "/>
<text text-anchor="start" x="240" y="-535.3" font-family="Times,serif" font-size="14.00">id :bigint</text>
<text text-anchor="start" x="240" y="-520.3" font-family="Times,serif" font-size="14.00">nombre :character varying</text>
<text text-anchor="start" x="240" y="-505.3" font-family="Times,serif" font-size="14.00">descripcion :text</text>
<text text-anchor="start" x="240" y="-490.3" font-family="Times,serif" font-size="14.00">imagen :character varying</text>
<text text-anchor="start" x="240" y="-475.3" font-family="Times,serif" font-size="14.00">carta :character varying</text>
<text text-anchor="start" x="240" y="-460.3" font-family="Times,serif" font-size="14.00">created_at :timestamp without time zone</text>
<text text-anchor="start" x="240" y="-445.3" font-family="Times,serif" font-size="14.00">updated_at :timestamp without time zone</text>
</g>
<!-- Pokemon&#45;&gt;User -->
<g id="edge4" class="edge"><title>Pokemon&#45;&gt;User</title>
<path fill="none" stroke="#a6ee11" d="M307.429,-428.516C303.416,-421.968 299.296,-415.246 295.136,-408.458"/>
<polygon fill="#a6ee11" stroke="#a6ee11" points="307.603,-428.8 308.992,-439.677 310.216,-433.063 312.829,-437.326 312.829,-437.326 312.829,-437.326 310.216,-433.063 316.666,-434.974 307.603,-428.8 307.603,-428.8"/>
<polygon fill="#a6ee11" stroke="#a6ee11" points="295.075,-408.36 293.686,-397.482 292.462,-404.097 289.85,-399.834 289.85,-399.834 289.85,-399.834 292.462,-404.097 286.013,-402.185 295.075,-408.36 295.075,-408.36"/>
</g>
<!-- Pokemon&#45;&gt;Atrapado -->
<g id="edge3" class="edge"><title>Pokemon&#45;&gt;Atrapado</title>
<path fill="none" stroke="#fc12d8" d="M380.125,-429.542C382.829,-419.699 385.23,-409.672 387,-400 403.757,-308.442 407.053,-200.81 407.129,-132.033"/>
<ellipse fill="none" stroke="#fc12d8" cx="378.99" cy="-433.538" rx="4.00001" ry="4.00001"/>
<polygon fill="#fc12d8" stroke="#fc12d8" points="407.129,-131.755 411.617,-121.75 407.123,-126.755 407.117,-121.755 407.117,-121.755 407.117,-121.755 407.123,-126.755 402.617,-121.761 407.129,-131.755 407.129,-131.755"/>
</g>
<!-- ApplicationRecord -->
<g id="node5" class="node"><title>ApplicationRecord</title>
<ellipse fill="none" stroke="black" cx="571" cy="-505.5" rx="77.1866" ry="18"/>
<text text-anchor="middle" x="571" y="-501.8" font-family="Times,serif" font-size="14.00">ApplicationRecord</text>
</g>
</g>
</svg>
